<?xml version="1.0" encoding="UTF-8" standalone="no"?>
<svg
   viewBox="0 0 500 500"
   version="1.1"
   id="svg326"
   sodipodi:docname="Code typing-amico.svg"
   inkscape:version="1.2.1 (9c6d41e410, 2022-07-14)"
   xmlns:inkscape="http://www.inkscape.org/namespaces/inkscape"
   xmlns:sodipodi="http://sodipodi.sourceforge.net/DTD/sodipodi-0.dtd"
   xmlns="http://www.w3.org/2000/svg"
   xmlns:svg="http://www.w3.org/2000/svg">
  <defs
     id="defs330" />
  <sodipodi:namedview
     id="namedview328"
     pagecolor="#ffffff"
     bordercolor="#000000"
     borderopacity="0.25"
     inkscape:showpageshadow="2"
     inkscape:pageopacity="0.0"
     inkscape:pagecheckerboard="0"
     inkscape:deskcolor="#d1d1d1"
     showgrid="false"
     inkscape:zoom="1.08"
     inkscape:cx="193.05556"
     inkscape:cy="250"
     inkscape:window-width="1366"
     inkscape:window-height="742"
     inkscape:window-x="0"
     inkscape:window-y="0"
     inkscape:window-maximized="1"
     inkscape:current-layer="svg326" />
  <g
     id="g778"
     transform="matrix(1.1123596,0,0,1.1123596,-28.0899,-44.46098)">
    <g
       id="freepik--Floor--inject-2">
      <ellipse
         cx="250"
         cy="358.48999"
         rx="222.5"
         ry="128.46001"
         style="fill:#f5f5f5"
         id="ellipse2" />
    </g>
    <g
       id="freepik--Shadows--inject-2">
      <ellipse
         cx="95.580002"
         cy="369.76001"
         rx="24.629999"
         ry="14.22"
         style="fill:#e6e6e6"
         id="ellipse5" />
      <path
         d="M 285.26,293.53 123.38,387 a 4,4 0 0 0 0,7 l 95.14,54.93 a 15.73,15.73 0 0 0 15.73,0 l 161.88,-93.46 a 4,4 0 0 0 0,-7 L 301,293.53 a 15.73,15.73 0 0 0 -15.74,0 z"
         style="fill:#e6e6e6"
         id="path7" />
      <path
         d="m 236.65,294.44 -64.8,37.42 a 8.55,8.55 0 0 0 0,14.82 l 32.63,18.84 a 14.23,14.23 0 0 0 14.2,0 l 64.81,-37.42 a 8.56,8.56 0 0 0 0,-14.82 l -32.64,-18.84 a 14.18,14.18 0 0 0 -14.2,0 z"
         style="fill:#e6e6e6"
         id="path9" />
    </g>
    <g
       id="freepik--Plant--inject-2">
      <path
         d="m 96.88,333 c 0,0 -15.22,-14.87 -6.56,-39.77 4.85,-13.95 20.94,-24.2 30.1,-25.16 a 42.92,42.92 0 0 0 -7.16,12.07 l -11.54,7.67 10.61,-3.32 -2.26,9.08 c 0,0 -9.86,6 -11.32,7.26 L 109.38,298 c 0,0 -0.82,25.72 -12.5,35 z"
         style="fill:#28110b"
         id="path12" />
      <path
         d="m 96.88,333 c 0,0 -15.22,-14.87 -6.56,-39.77 4.85,-13.95 20.94,-24.2 30.1,-25.16 a 42.92,42.92 0 0 0 -7.16,12.07 l -11.54,7.67 10.61,-3.32 -2.26,9.08 c 0,0 -9.86,6 -11.32,7.26 L 109.38,298 c 0,0 -0.82,25.72 -12.5,35 z"
         style="opacity:0.4"
         id="path14" />
      <path
         d="m 96.88,333 c 0,0 -7.88,-31.11 3.78,-49.25 0,-0.04 -13.66,15.97 -3.78,49.25 z"
         style="fill:#ffffff"
         id="path16" />
      <path
         d="m 114.3,337.17 -18.63,-0.24 h -0.19 l -18.62,0.24 c 0,0 -0.21,22.94 6.86,32.27 v 0 c 2,2.49 6.53,4.23 11.86,4.23 5.33,0 9.92,-1.75 11.87,-4.24 7.05,-9.34 6.85,-32.26 6.85,-32.26 z"
         style="fill:#37474f"
         id="path18" />
      <ellipse
         cx="95.580002"
         cy="337.17001"
         rx="18.719999"
         ry="10.05"
         style="fill:#455a64"
         id="ellipse20" />
      <path
         d="m 95.58,334.5 c 6.44,0 11.89,2.07 13.81,4.93 a 4,4 0 0 0 0.75,-2.26 c 0,-4 -6.52,-7.19 -14.56,-7.19 -8.04,0 -14.58,3.22 -14.58,7.19 a 4.08,4.08 0 0 0 0.74,2.26 c 1.94,-2.86 7.4,-4.93 13.84,-4.93 z"
         style="fill:#263238"
         id="path22" />
      <ellipse
         cx="95.580002"
         cy="339.42999"
         rx="13.81"
         ry="4.9299998"
         style="fill:#e0e0e0"
         id="ellipse24" />
      <path
         d="m 95.81,340.67 c 0,0 -7.22,-0.28 -13.4,-9.86 -2.56,-3.95 -3.79,-6 -3.79,-6 l 10,-0.75 -11.26,-2.81 -5.32,-8.14 9.35,-0.7 c 0,0 -7,-2.44 -11.93,-2.47 0,0 -8.63,-15.23 -11.15,-17.4 a 48.89,48.89 0 0 1 34.07,16.92 c 14.22,16.73 5.53,31.64 3.43,31.21 z"
         style="fill:#28110b"
         id="path26" />
      <path
         d="m 95.81,340.67 c 0,0 4.51,-27.18 -24.28,-43.52 0,0 29.88,14.35 24.28,43.52 z"
         style="fill:#ffffff"
         id="path28" />
      <path
         d="m 95.81,340.67 c 0,0 6.53,0.42 13,-7.64 2.67,-3.32 4,-5.08 4,-5.08 l -9,-1.62 10.42,-1.48 5.57,-6.85 -8.37,-1.51 c 0,0 6.51,-1.54 11,-1.1 0,0 9.22,-12.94 11.7,-14.66 A 44.36,44.36 0 0 0 101.8,312.8 c -14.37,13.79 -7.93,28.06 -5.99,27.87 z"
         style="fill:#28110b"
         id="path30" />
      <path
         d="m 95.81,340.67 c 0,0 6.53,0.42 13,-7.64 2.67,-3.32 4,-5.08 4,-5.08 l -9,-1.62 10.42,-1.48 5.57,-6.85 -8.37,-1.51 c 0,0 6.51,-1.54 11,-1.1 0,0 9.22,-12.94 11.7,-14.66 A 44.36,44.36 0 0 0 101.8,312.8 c -14.37,13.79 -7.93,28.06 -5.99,27.87 z"
         style="opacity:0.2"
         id="path32" />
      <path
         d="m 95.81,340.67 c 0,0 -1.52,-24.94 26,-37 0,0.02 -28.31,10.16 -26,37 z"
         style="fill:#ffffff"
         id="path34" />
    </g>
    <g
       id="freepik--Pictures--inject-2">
      <polygon
         points="85.88,144.24 128.91,119.4 128.91,169.08 85.88,193.92 "
         style="fill:#fafafa"
         id="polygon37" />
      <path
         d="m 124.25,122.09 v 44.3 l -38.37,22.15 v -44.3 l 38.37,-22.15 m 2.33,-4 -43,24.84 v 49.68 l 2.33,1.35 43,-24.84 V 119.4 l -2.33,-1.35 z"
         style="fill:#e0e0e0"
         id="path39" />
      <path
         d="m 126.58,123.43 v 44.3 l -38.37,22.15 v -44.3 l 38.37,-22.15 m 2.33,-4 -43,24.84 v 49.68 l 43,-24.84 V 119.4 Z"
         style="fill:#ebebeb"
         id="path41" />
      <polygon
         points="106.32,159.39 113.13,149.7 122.59,157.71 90.04,176.5 99.66,151.49 "
         style="fill:#e0e0e0"
         id="polygon43" />
      <path
         d="m 111.3,142.1 a 6.57,6.57 0 0 1 -3,5.15 c -1.64,0.94 -3,0.18 -3,-1.72 a 6.57,6.57 0 0 1 3,-5.14 c 1.7,-0.95 3,-0.18 3,1.71 z"
         style="fill:#e0e0e0"
         id="path45" />
      <polygon
         points="108.99,77.33 143.26,57.55 143.26,97.12 108.99,116.91 "
         style="fill:#fafafa"
         id="polygon47" />
      <path
         d="M 139.55,59.69 V 95 L 109,112.63 v -35.3 l 30.56,-17.64 m 1.86,-3.22 -34.29,19.79 v 39.58 l 1.86,1.07 34.27,-19.79 V 57.54 l -1.85,-1.07 z"
         style="fill:#e0e0e0"
         id="path49" />
      <path
         d="M 141.41,60.76 V 96.05 L 110.84,113.7 V 78.4 L 141.41,60.76 M 143.26,57.54 109,77.33 v 39.58 L 143.27,97.12 V 57.54 Z"
         style="fill:#ebebeb"
         id="path51" />
      <polygon
         points="125.27,89.41 130.69,81.68 138.23,88.07 112.3,103.04 119.96,83.11 "
         style="fill:#e0e0e0"
         id="polygon53" />
      <path
         d="m 129.24,75.63 a 5.22,5.22 0 0 1 -2.37,4.1 c -1.31,0.76 -2.36,0.14 -2.36,-1.36 a 5.21,5.21 0 0 1 2.36,-4.1 c 1.31,-0.76 2.37,-0.14 2.37,1.36 z"
         style="fill:#e0e0e0"
         id="path55" />
    </g>
    <g
       id="freepik--Character--inject-2">
      <path
         d="m 216.15,286.33 13.91,84.89 a 2.65,2.65 0 0 0 2.62,2.22 v 0 a 2.65,2.65 0 0 0 2.63,-2.94 l -9.76,-87.58 z"
         style="fill:#263238"
         id="path58" />
      <path
         d="m 264.17,257.78 13.92,84.89 a 2.64,2.64 0 0 0 2.61,2.22 v 0 a 2.65,2.65 0 0 0 2.63,-2.95 l -9.76,-87.57 z"
         style="fill:#263238"
         id="path60" />
      <path
         d="m 194.8,266.48 -13.73,73.15 a 2.21,2.21 0 0 1 -2.19,1.82 2.24,2.24 0 0 1 -2.21,-2.56 l 10.14,-67.8 z"
         style="fill:#263238"
         id="path62" />
      <path
         d="m 243.36,239.19 -13.65,72.7 a 2.21,2.21 0 0 1 -2.19,1.82 2.24,2.24 0 0 1 -2.21,-2.55 l 10.06,-67.37 z"
         style="fill:#263238"
         id="path64" />
      <path
         d="m 239.4,233.65 a 19.46,19.46 0 0 1 -11.49,-15.87 c -2.21,-22.28 -10.06,-68.18 -36.64,-52.9 -32.82,18.86 -21.07,73.63 -16.3,91.19 a 23.71,23.71 0 0 0 6,10.49 c 5.93,6 18.2,16.26 39.08,25 a 12.26,12.26 0 0 0 8.08,0.48 c 10.37,-2.95 37.46,-12 51,-29.3 a 4.72,4.72 0 0 0 -0.78,-6.6 c -5.47,-4.34 -17.84,-13.07 -38.95,-22.49 z"
         style="fill:#28110b"
         id="path66" />
      <path
         d="m 239.4,233.65 a 19.46,19.46 0 0 1 -11.49,-15.87 c -2.21,-22.28 -10.06,-68.18 -36.64,-52.9 -32.82,18.86 -21.07,73.63 -16.3,91.19 a 23.71,23.71 0 0 0 6,10.49 c 5.93,6 18.2,16.26 39.08,25 a 12.26,12.26 0 0 0 8.08,0.48 c 10.37,-2.95 37.46,-12 51,-29.3 a 4.72,4.72 0 0 0 -0.78,-6.6 c -5.47,-4.34 -17.84,-13.07 -38.95,-22.49 z"
         style="opacity:0.5"
         id="path68" />
      <path
         d="m 280.11,259.61 a 4.68,4.68 0 0 1 -1,3.14 c -0.72,0.93 -1.49,1.82 -2.28,2.7 v 0 c -0.44,0.48 -0.88,0.95 -1.34,1.41 v 0 c -0.45,0.46 -0.91,0.91 -1.38,1.36 v 0 l -1.42,1.32 v 0 c -0.49,0.43 -1,0.86 -1.49,1.28 v 0 c -7.67,6.43 -17,11.33 -25.27,14.86 v 0 l -1.54,0.65 -0.16,0.06 -1.42,0.58 -0.25,0.09 -1.32,0.52 -0.3,0.12 -1.23,0.46 -0.36,0.13 -1.14,0.42 -0.41,0.15 -1.05,0.37 -0.43,0.15 -1,0.33 -0.47,0.16 -0.88,0.29 -0.5,0.17 -0.79,0.25 -0.54,0.17 -0.68,0.22 -0.58,0.17 -0.57,0.18 -0.71,0.21 -0.36,0.1 c -0.34,0.11 -0.68,0.2 -1,0.29 a 12.26,12.26 0 0 1 -8.08,-0.48 c -20.88,-8.75 -33.15,-19 -39.08,-25 a 23.71,23.71 0 0 1 -6,-10.49 c -4.77,-17.56 -16.52,-72.33 16.3,-91.19 q 0.87,-0.49 1.71,-0.9 l 0.37,-0.18 c 0.56,-0.26 1.1,-0.5 1.64,-0.71 l 0.16,-0.06 c 0.51,-0.19 1,-0.36 1.52,-0.5 l 0.23,-0.07 c 0.54,-0.15 1.07,-0.27 1.59,-0.37 h 0.14 a 14.74,14.74 0 0 1 3.14,-0.22 h 0.06 a 13.24,13.24 0 0 1 3,0.46 v 0 c -5.24,-2.31 -11.64,-2.21 -18,1.44 -32.82,18.86 -21.07,73.63 -16.3,91.19 l 0.81,3 a 28.54,28.54 0 0 0 10.24,15.31 l 8.52,6.51 v 0 a 133.87,133.87 0 0 0 29.79,17.16 12.28,12.28 0 0 0 8.11,0.5 c 10.36,-2.95 37.47,-12 51,-29.3 a 4.67,4.67 0 0 0 1,-2.57 v 0 -5.85 z"
         style="fill:#28110b"
         id="path70" />
      <path
         d="m 280.11,259.61 a 4.68,4.68 0 0 1 -1,3.14 c -0.72,0.93 -1.49,1.82 -2.28,2.7 v 0 c -0.44,0.48 -0.88,0.95 -1.34,1.41 v 0 c -0.45,0.46 -0.91,0.91 -1.38,1.36 v 0 l -1.42,1.32 v 0 c -0.49,0.43 -1,0.86 -1.49,1.28 v 0 c -7.67,6.43 -17,11.33 -25.27,14.86 v 0 l -1.54,0.65 -0.16,0.06 -1.42,0.58 -0.25,0.09 -1.32,0.52 -0.3,0.12 -1.23,0.46 -0.36,0.13 -1.14,0.42 -0.41,0.15 -1.05,0.37 -0.43,0.15 -1,0.33 -0.47,0.16 -0.88,0.29 -0.5,0.17 -0.79,0.25 -0.54,0.17 -0.68,0.22 -0.58,0.17 -0.57,0.18 -0.71,0.21 -0.36,0.1 c -0.34,0.11 -0.68,0.2 -1,0.29 a 12.26,12.26 0 0 1 -8.08,-0.48 c -20.88,-8.75 -33.15,-19 -39.08,-25 a 23.71,23.71 0 0 1 -6,-10.49 c -4.77,-17.56 -16.52,-72.33 16.3,-91.19 q 0.87,-0.49 1.71,-0.9 l 0.37,-0.18 c 0.56,-0.26 1.1,-0.5 1.64,-0.71 l 0.16,-0.06 c 0.51,-0.19 1,-0.36 1.52,-0.5 l 0.23,-0.07 c 0.54,-0.15 1.07,-0.27 1.59,-0.37 h 0.14 a 14.74,14.74 0 0 1 3.14,-0.22 h 0.06 a 13.24,13.24 0 0 1 3,0.46 v 0 c -5.24,-2.31 -11.64,-2.21 -18,1.44 -32.82,18.86 -21.07,73.63 -16.3,91.19 l 0.81,3 a 28.54,28.54 0 0 0 10.24,15.31 l 8.52,6.51 v 0 a 133.87,133.87 0 0 0 29.79,17.16 12.28,12.28 0 0 0 8.11,0.5 c 10.36,-2.95 37.47,-12 51,-29.3 a 4.67,4.67 0 0 0 1,-2.57 v 0 -5.85 z"
         style="opacity:0.6"
         id="path72" />
      <path
         d="m 298.21,322.28 c -2.24,-14.29 -5.11,-37.13 -6.75,-50.63 q -0.16,-1.33 -0.45,-2.64 A 28,28 0 0 0 277.8,251.12 l -33.66,-20 -22.85,-12 c 0,0 -6.08,17.62 1,28.4 5.88,9 31.84,20.08 39.56,23.83 7.72,3.75 7.88,4.76 7.72,9.77 -0.16,5.01 -0.17,11.39 9.31,31.37 2.73,5.74 4.63,10 5.95,13.33 a 21,21 0 0 0 13.38,-3.54 z"
         style="fill:#28110b"
         id="path74" />
      <path
         d="m 298.21,322.28 c -2.24,-14.29 -5.11,-37.13 -6.75,-50.63 a 28.43,28.43 0 0 0 -0.76,-3.93 27.93,27.93 0 0 0 -12.85,-16.57 l -33.71,-20.07 -22.85,-12 c 0,0 -6.08,17.62 1,28.4 5.88,9 31.84,20.08 39.56,23.83 7.72,3.75 7.88,4.76 7.72,9.77 -0.16,5.01 -0.17,11.39 9.31,31.37 2.73,5.74 4.63,10 5.95,13.33 a 21,21 0 0 0 13.38,-3.5 z"
         style="opacity:0.7"
         id="path76" />
      <path
         d="m 287.8,337.41 a 3.39,3.39 0 0 0 0.41,1.7 23.72,23.72 0 0 0 5.06,6 c 4.54,4.09 19.57,20.1 24.85,10.16 0,0 -15.53,-14.87 -17.58,-21 a 101.83,101.83 0 0 1 -2.33,-12 21,21 0 0 1 -13.4,3.48 c 2.91,7.25 3.04,9.6 2.99,11.66 z"
         style="fill:#ffa8a7"
         id="path78" />
      <path
         d="m 304,336.43 -0.43,-1.29 a 2,2 0 0 0 -2.42,-1.24 l -6.29,1.94 a 1.93,1.93 0 0 0 -1.36,1.85 v 0.63 a 1.13,1.13 0 0 1 -1.13,1.12 v 0 a 5.73,5.73 0 0 1 -3.65,-1.31 l -0.88,-0.72 v -2.2 0 a 3.87,3.87 0 0 0 -1.75,3.44 c 0.08,1.49 0.15,3.31 0.09,4 -0.1,1.32 -1.33,6.82 0.14,8.45 1.47,1.63 4.77,1.82 8.85,1.38 4.08,-0.44 8.54,3.57 12.32,5.06 3.78,1.49 19.44,4.69 19.4,-5.32 0,-2.55 -2.53,-3.59 -5,-4.49 -2.47,-0.9 -11.41,-4.05 -13.7,-5.94 a 21,21 0 0 1 -2.55,-2.52 8.35,8.35 0 0 1 -1.64,-2.84 z"
         style="fill:#455a64"
         id="path80" />
      <path
         d="m 307.45,357.57 c -3.78,-1.49 -8.24,-5.5 -12.32,-5.06 -4.08,0.44 -7.38,0.25 -8.85,-1.38 a 3.91,3.91 0 0 1 -0.7,-2.31 c -0.07,1.54 0.05,3 0.7,3.74 1.47,1.63 4.77,1.82 8.85,1.38 4.08,-0.44 8.54,3.58 12.32,5.06 3.78,1.48 19.44,4.69 19.4,-5.32 a 3.18,3.18 0 0 0 -0.06,-0.43 c -0.98,8.75 -15.69,5.75 -19.34,4.32 z"
         style="fill:#263238"
         id="path82" />
      <path
         d="m 267.64,339.62 c -2.25,-14.28 -5.11,-37.12 -6.76,-50.63 a 28.42,28.42 0 0 0 -9.82,-18.24 L 210.67,236.41 189.08,236 c 0,0 -4.45,18 2.61,28.77 5.89,9 31.84,20.09 39.56,23.83 7.72,3.74 7.88,4.77 7.72,9.77 -0.16,5 -0.17,11.39 9.32,31.37 2.72,5.75 4.62,10 5.94,13.33 a 21.06,21.06 0 0 0 13.41,-3.45 z"
         style="fill:#28110b"
         id="path84" />
      <path
         d="m 267.64,339.62 c -2.25,-14.28 -5.11,-37.12 -6.76,-50.63 a 28.42,28.42 0 0 0 -9.82,-18.24 L 210.67,236.41 189.08,236 c 0,0 -4.45,18 2.61,28.77 5.89,9 31.84,20.09 39.56,23.83 7.72,3.74 7.88,4.77 7.72,9.77 -0.16,5 -0.17,11.39 9.32,31.37 2.72,5.75 4.62,10 5.94,13.33 a 21.06,21.06 0 0 0 13.41,-3.45 z"
         style="opacity:0.7"
         id="path86" />
      <path
         d="m 257.21,353.46 c 0,0.6 -0.41,2.37 0.42,3 1.06,0.79 2.07,3.32 5.07,6 4.53,4.09 9.32,-4.72 7.26,-10.83 a 102.85,102.85 0 0 1 -2.32,-12 21.06,21.06 0 0 1 -13.41,3.48 c 2.92,7.22 3.04,8.3 2.98,10.35 z"
         style="fill:#ffa8a7"
         id="path88" />
      <path
         d="m 230.52,161.52 v 0 a 13.22,13.22 0 0 1 14.61,8.86 57.45,57.45 0 0 1 2.73,13.22 c 1.17,13.85 1.49,20.77 1.49,20.77 l 13.91,6.31 c 0,0 -7.51,0.36 -7,11 l -17.33,-4.37 z"
         style="fill:#ffa8a7"
         id="path90" />
      <path
         d="m 249.86,196 c -2.05,-15 -2.86,-22.85 -4.62,-26.57 a 13.49,13.49 0 0 0 -14.72,-7.91 l 5.24,41.2 0.67,-0.06 a 21.78,21.78 0 0 0 12.47,-5.52 z"
         style="fill:#28110b"
         id="path92" />
      <path
         d="m 249.86,196 c -2.05,-15 -2.86,-22.85 -4.62,-26.57 a 13.49,13.49 0 0 0 -14.72,-7.91 l 5.24,41.2 0.67,-0.06 a 21.78,21.78 0 0 0 12.47,-5.52 z"
         style="opacity:0.2"
         id="path94" />
      <path
         d="m 249.35,204.37 a 9.62,9.62 0 0 0 -4.11,2.53 c 0,0 1.68,-3.19 4,-4.18 z"
         style="fill:#f28f8f"
         id="path96" />
      <path
         d="m 197.1,173.67 15.56,-7.54 12.82,-4.43 c 0,0 10.28,-3.27 12.9,10.42 2.17,11.25 2.45,54 2.45,54 l -0.23,4.67 c 0,0 -5.93,16.62 -27.12,18 -21.19,1.38 -25.32,-7.56 -25.32,-7.56 0,0 -2.16,-56.57 8.94,-67.56 z"
         style="fill:#28110b"
         id="path98" />
      <path
         d="m 246.13,128 c 0,0 4.81,12.33 -1.83,17.76 -6.64,5.43 -4.3,-16.43 -4.3,-16.43 z"
         style="fill:#263238"
         id="path100" />
      <path
         d="M 287.81,198.49 140,283.83 v 18.49 0 89.85 0 a 1.86,1.86 0 0 0 1.12,1.67 6,6 0 0 0 5.46,0 1.86,1.86 0 0 0 1.11,-1.67 v 0 -85.4 L 227.83,353 v 90.73 0 a 1.86,1.86 0 0 0 1.12,1.66 6,6 0 0 0 5.46,0 1.86,1.86 0 0 0 1.12,-1.66 v 0 V 353 l 136.23,-78.65 v 86 0 a 1.85,1.85 0 0 0 1.14,1.65 6,6 0 0 0 5.46,0 1.85,1.85 0 0 0 1.12,-1.66 v 0 -108.91 z"
         style="fill:#455a64"
         id="path102" />
      <path
         d="m 234.41,445.41 a 6,6 0 0 1 -5.46,0 c -1.51,-0.87 -1.51,-2.28 0,-3.15 a 6,6 0 0 1 5.46,0 c 1.51,0.87 1.51,2.28 0,3.15 z"
         style="fill:#455a64"
         id="path104" />
      <rect
         x="227.83"
         y="350.79001"
         width="7.7199998"
         height="92.959999"
         style="fill:#37474f"
         id="rect106" />
      <ellipse
         cx="143.87"
         cy="392.26999"
         rx="3.8599999"
         ry="2.23"
         style="fill:#455a64"
         id="ellipse108" />
      <rect
         x="140.00999"
         y="299.23001"
         width="7.7199998"
         height="92.959999"
         style="fill:#263238"
         id="rect110" />
      <path
         d="m 378.36,362 a 6,6 0 0 1 -5.46,0 c -1.51,-0.87 -1.51,-2.28 0,-3.15 a 6,6 0 0 1 5.46,0 c 1.51,0.88 1.51,2.29 0,3.15 z"
         style="fill:#455a64"
         id="path112" />
      <rect
         x="371.78"
         y="267.39001"
         width="7.7199998"
         height="92.959999"
         style="fill:#37474f"
         id="rect114" />
      <path
         d="m 284,291.66 a 5.42,5.42 0 0 1 -4.9,0 c -1.35,-0.78 -1.35,-2 0,-2.82 a 5.36,5.36 0 0 1 4.9,0 c 1.31,0.78 1.31,2.04 0,2.82 z"
         style="fill:#455a64"
         id="path116" />
      <rect
         x="278.04999"
         y="212.60001"
         width="6.9299998"
         height="77.580002"
         style="fill:#455a64"
         id="rect118" />
      <polygon
         points="231.69,336.76 140,283.83 140,302.32 231.69,355.26 "
         style="fill:#263238"
         id="polygon120" />
      <polygon
         points="379.5,269.92 379.5,251.43 231.69,336.76 231.69,355.26 "
         style="fill:#37474f"
         id="polygon122" />
      <polygon
         points="379.5,251.43 287.81,198.49 140,283.83 231.69,336.76 "
         style="fill:#455a64"
         id="polygon124" />
      <polygon
         points="269.56,223.36 213.66,256.08 247.28,275.49 303.17,243.16 "
         style="fill:#ebebeb"
         id="polygon126" />
      <polygon
         points="235.76,245.99 243.66,250.55 256.27,243.27 248.37,238.71 "
         style="fill:#e0e0e0"
         id="polygon128" />
      <polygon
         points="248.71,270.64 231.72,260.64 264.92,240.54 "
         style="fill:#e0e0e0"
         id="polygon130" />
      <path
         d="m 258.22,208.28 13.45,6.31 a 117.87,117.87 0 0 1 11.87,3.67 c 0,0 9.36,3.82 9.79,6.33 0.43,2.51 -7,8.56 -13.57,5.62 a 20.71,20.71 0 0 0 -5.46,-2 c -1.75,-0.19 -7,-1 -10.75,-4.61 l -15.69,-4.08 c 0,0 -0.78,-9.68 10.36,-11.24 z"
         style="fill:#ffa8a7"
         id="path132" />
      <path
         d="m 266.93,227 c 1.55,1.67 6,5.88 7,7.1 1,1.22 3.26,-1.91 -0.75,-6.58 a 37.63,37.63 0 0 1 -9.69,-5.27 38.28,38.28 0 0 0 3.44,4.75 z"
         style="fill:#ffa8a7"
         id="path134" />
      <rect
         x="212.66"
         y="146.81"
         width="15.96"
         height="19.32"
         style="fill:#ffa8a7"
         id="rect136" />
      <path
         d="M 228.63,166.13 A 25.69,25.69 0 0 1 214,152.18 v -5.37 h 14.67 z"
         style="fill:#f28f8f"
         id="path138" />
      <path
         d="m 234,121.3 c 0,0 14.52,1.75 11.19,26.56 -1.54,11.47 -4.61,17.27 -13.45,16.29 -10,-1.12 -23.87,-8.9 -21.72,-28.56 C 212.17,115.93 234,121.3 234,121.3 Z"
         style="fill:#ffa8a7"
         id="path140" />
      <polygon
         points="234.81,143.42 234.29,151.99 239.4,150.76 "
         style="fill:#f28f8f"
         id="polygon142" />
      <path
         d="m 227.21,142.65 a 1.75,1.75 0 1 0 1.85,-1.64 1.75,1.75 0 0 0 -1.85,1.64 z"
         style="fill:#263238"
         id="path144" />
      <path
         d="m 238.76,142.14 a 1.75,1.75 0 1 0 1.86,-1.64 1.75,1.75 0 0 0 -1.86,1.64 z"
         style="fill:#263238"
         id="path146" />
      <path
         d="m 242.86,138.74 -3.29,-2.24 c 0,0 1.39,-1.28 2.65,-0.38 a 2.39,2.39 0 0 1 0.64,2.62 z"
         style="fill:#263238"
         id="path148" />
      <path
         d="m 228.42,138.35 -3.55,1.78 c 0,0 -0.44,-1.84 0.95,-2.49 a 2.38,2.38 0 0 1 2.6,0.71 z"
         style="fill:#263238"
         id="path150" />
      <path
         d="m 234.54,155.47 a 8.93,8.93 0 0 1 -5.53,-1.85 c 0,0 -0.56,2.94 1.88,3.65 2.44,0.71 3.65,-1.8 3.65,-1.8 z"
         style="fill:#f28f8f"
         id="path152" />
      <path
         d="m 212.49,143.22 c 0,0 2.23,4.65 3.61,4.49 1.38,-0.16 0,-17.81 2.86,-17.92 2.86,-0.11 16.36,6.59 28.29,-2.06 4.59,-3.32 5.5,-11.8 2.75,-11 -2.75,0.8 -6.46,3.21 -11.47,2.87 -5.01,-0.34 -22.55,-8.48 -26.9,3 0,0 -9.7,-0.79 -6.06,18.47 0.91,4.79 3.77,16.65 7.09,17.82 z"
         style="fill:#263238"
         id="path154" />
      <path
         d="m 213.28,147.46 a 9.79,9.79 0 0 0 -0.79,-4.24 4.5,4.5 0 0 0 -3.89,-3 c -4.48,-0.12 -5.09,4.2 -5,5.73 0.16,4 3.43,8.4 9.51,8.57 z"
         style="fill:#ffa8a7"
         id="path156" />
      <path
         d="M 214.66,233.91 226.1,243 a 38.42,38.42 0 0 1 5.8,1 c 2.19,0.65 7.93,2.76 9.45,3.09 1.52,0.33 -0.44,3 -4.42,2 0,0 8.34,5.71 8.23,8.25 -0.11,2.54 -8.67,6.88 -14.45,2.62 a 21.4,21.4 0 0 0 -4.91,-3.08 c -1.68,-0.55 -6.61,-2.46 -9.54,-6.78 l -10,-5.21 c 0,0 -2.82,-11.81 8.4,-10.98 z"
         style="fill:#ffa8a7"
         id="path158" />
      <path
         d="m 202.18,171.21 c 0,0 6.67,5.17 2.57,21.24 -4.1,16.07 -6.29,29.92 -6.29,29.92 l 16.2,11.54 a 14.28,14.28 0 0 0 -8.4,11 c 0,0 -25.54,-10 -26.06,-16.49 -0.52,-6.49 5.33,-34.35 6.22,-39.48 0.89,-5.13 5.43,-15.3 15.76,-17.73 z"
         style="fill:#ffa8a7"
         id="path160" />
      <path
         d="m 198.46,222.37 a 15.12,15.12 0 0 0 -6.11,0.06 12.8,12.8 0 0 1 6.25,-1.55 z"
         style="fill:#f28f8f"
         id="path162" />
      <path
         d="m 311,206.13 -5.85,38.25 a 0.1,0.1 0 0 1 0,0.07 L 247,278.12 a 0.09,0.09 0 0 1 -0.13,-0.09 l 5.67,-37.1 a 5.5,5.5 0 0 1 2.56,-3.86 l 53.26,-32.66 a 1.72,1.72 0 0 1 2.64,1.72 z"
         style="fill:#fafafa"
         id="path164" />
      <path
         d="m 247,278.12 -31,-18 a 4.72,4.72 0 0 1 -2.35,-4.08 v 0 l 33.62,19.41 z"
         style="fill:#e0e0e0"
         id="path166" />
      <path
         d="m 277.37,243 c 0,2.74 1.92,3.84 4.28,2.48 a 9.47,9.47 0 0 0 4.29,-7.42 c 0,-2.74 -1.92,-3.84 -4.29,-2.48 a 9.49,9.49 0 0 0 -4.28,7.42 z"
         style="fill:#e0e0e0"
         id="path168" />
      <path
         d="m 213.17,128.21 c 0,0 -2.64,-3.9 -1,-5.16 1.64,-1.26 2.83,2.75 1,5.16 z"
         style="fill:#263238"
         id="path170" />
      <path
         d="m 213.61,129 c 0,0 -4.66,-0.58 -4.55,-2.62 0.11,-2.04 3.94,-0.32 4.55,2.62 z"
         style="fill:#263238"
         id="path172" />
      <path
         d="m 212.66,166.13 c 0,0 3.43,9 11.33,7.88 7.9,-1.12 4.64,-7.88 4.64,-7.88 z"
         style="fill:#ffa8a7"
         id="path174" />
      <path
         d="m 202.18,171.21 c 0,0 5.2,2.49 4.4,12.95 -0.8,10.46 -4.93,31.54 -4.93,31.54 0,0 -18.61,7.54 -20.39,-3.09 -0.45,-2.75 4.24,-28.18 8.25,-33.56 a 18.94,18.94 0 0 1 12.67,-7.84 z"
         style="fill:#28110b"
         id="path176" />
      <path
         d="m 202.18,171.21 c 0,0 5.2,2.49 4.4,12.95 -0.8,10.46 -4.93,31.54 -4.93,31.54 0,0 -18.61,7.54 -20.39,-3.09 -0.45,-2.75 4.24,-28.18 8.25,-33.56 a 18.94,18.94 0 0 1 12.67,-7.84 z"
         style="opacity:0.2"
         id="path178" />
      <path
         d="m 257.63,354 a 5.05,5.05 0 0 0 3,2.12 c 1.13,0.18 -1.15,-2.75 1.57,-3.93 2.72,-1.18 8.95,-2.79 9.51,-0.45 l 0.69,2.92 a 17.31,17.31 0 0 0 3.84,7.45 36.42,36.42 0 0 0 6.16,5.89 c 3.56,2.29 9.41,7.84 1.9,12.57 -7.51,4.73 -16.73,0.73 -18.54,-4.64 -1.81,-5.37 -3.72,-6.93 -4.68,-7.82 a 10.25,10.25 0 0 1 -4.06,-5.92 56.39,56.39 0 0 1 -1,-7.2 2.71,2.71 0 0 1 1.24,-2.49 v 0 z"
         style="fill:#455a64"
         id="path180" />
      <path
         d="m 284.34,380.55 c -7.51,4.72 -16.73,0.73 -18.54,-4.64 -1.81,-5.37 -3.72,-6.93 -4.68,-7.82 a 10.8,10.8 0 0 1 -3.75,-4.87 c 0,0.14 0,0.3 0,0.44 0.29,4.65 3.14,5.74 4.1,6.64 0.96,0.9 2.54,2.36 4.35,7.74 1.81,5.38 11.33,8.72 18.83,4 3.65,-2.29 4.14,-4.78 3.28,-7 0.18,1.81 -0.74,3.72 -3.59,5.51 z"
         style="fill:#263238"
         id="path182" />
      <path
         d="m 248.26,309.16 -23.92,13.84 -30.2,-17.44 24,-13.84 a 2.1,2.1 0 0 1 2.06,0 l 28.09,16.22 a 0.71,0.71 0 0 1 -0.03,1.22 z"
         style="fill:#28110b"
         id="path184" />
      <path
         d="m 248.26,309.16 -23.92,13.84 -30.2,-17.44 24,-13.84 a 2.1,2.1 0 0 1 2.06,0 l 28.09,16.22 a 0.71,0.71 0 0 1 -0.03,1.22 z"
         style="opacity:0.7"
         id="path186" />
      <path
         d="m 246.6,308.66 -22.26,12.85 -28.11,-16.22 22.31,-12.88 a 1.87,1.87 0 0 1 1.91,0 l 26.15,15.09 a 0.67,0.67 0 0 1 0,1.16 z"
         style="fill:#ffffff"
         id="path188" />
      <polygon
         points="246.94,308.09 224.34,321.51 224.34,319 246.94,305.96 "
         style="fill:#ffffff"
         id="polygon190" />
      <polygon
         points="196.23,305.29 224.34,321.51 224.34,319 196.23,302.78 "
         style="fill:#e0e0e0"
         id="polygon192" />
      <path
         d="m 248.26,305.19 -23.92,13.81 -30.2,-17.43 24,-13.84 a 2.1,2.1 0 0 1 2.06,0 L 248.26,304 a 0.71,0.71 0 0 1 0,1.19 z"
         style="fill:#28110b"
         id="path194" />
      <path
         d="m 248.26,305.19 -23.92,13.81 -30.2,-17.43 24,-13.84 a 2.1,2.1 0 0 1 2.06,0 L 248.26,304 a 0.71,0.71 0 0 1 0,1.19 z"
         style="opacity:0.5"
         id="path196" />
      <path
         d="m 221.21,321.17 a 0.49,0.49 0 0 1 -0.44,0 0.55,0.55 0 0 1 -0.29,-0.48 v -2.29 a 3,3 0 0 1 1.45,-2.54 l 0.09,-0.06 a 0.27,0.27 0 0 1 0.4,0.24 0.47,0.47 0 0 0 0.94,0 1.19,1.19 0 0 0 -0.61,-1.05 1.17,1.17 0 0 0 -1.21,0 l -0.09,0.05 a 3.9,3.9 0 0 0 -1.91,3.35 v 2.27 a 1.49,1.49 0 0 0 0.78,1.31 1.45,1.45 0 0 0 0.7,0.17 1.47,1.47 0 0 0 0.83,-0.25 0.44,0.44 0 0 0 0.18,-0.26 z"
         style="fill:#ffffff"
         id="path198" />
      <path
         d="m 216.74,318.59 a 0.49,0.49 0 0 1 -0.44,0 0.55,0.55 0 0 1 -0.29,-0.48 v -2.27 a 3,3 0 0 1 1.45,-2.55 h 0.09 a 0.28,0.28 0 0 1 0.27,0 0.27,0.27 0 0 1 0.13,0.23 0.47,0.47 0 1 0 0.94,0 1.19,1.19 0 0 0 -0.61,-1 1.17,1.17 0 0 0 -1.21,0 l -0.09,0.05 a 3.9,3.9 0 0 0 -1.91,3.35 v 2.27 a 1.49,1.49 0 0 0 0.78,1.31 1.45,1.45 0 0 0 0.7,0.17 1.47,1.47 0 0 0 0.83,-0.25 0.44,0.44 0 0 0 0.18,-0.26 z"
         style="fill:#ffffff"
         id="path200" />
      <path
         d="m 212.27,316 a 0.52,0.52 0 0 1 -0.44,0 0.55,0.55 0 0 1 -0.29,-0.48 v -2.27 a 3,3 0 0 1 1.45,-2.55 l 0.09,-0.05 a 0.28,0.28 0 0 1 0.27,0 0.27,0.27 0 0 1 0.13,0.23 0.47,0.47 0 1 0 0.94,0 1.19,1.19 0 0 0 -0.61,-1 1.17,1.17 0 0 0 -1.21,0 l -0.09,0.05 a 3.9,3.9 0 0 0 -1.91,3.35 v 2.27 a 1.49,1.49 0 0 0 0.78,1.31 1.45,1.45 0 0 0 0.7,0.17 1.47,1.47 0 0 0 0.83,-0.25 0.44,0.44 0 0 0 0.18,-0.26 z"
         style="fill:#ffffff"
         id="path202" />
      <path
         d="m 207.8,313.43 a 0.52,0.52 0 0 1 -0.44,0 0.55,0.55 0 0 1 -0.29,-0.48 v -2.27 a 3,3 0 0 1 1.45,-2.55 l 0.09,-0.05 a 0.28,0.28 0 0 1 0.27,0 0.27,0.27 0 0 1 0.13,0.23 0.47,0.47 0 0 0 0.94,0 1.19,1.19 0 0 0 -0.61,-1 1.17,1.17 0 0 0 -1.21,0 l -0.09,0.05 a 3.9,3.9 0 0 0 -1.91,3.35 v 2.27 a 1.49,1.49 0 0 0 0.78,1.31 1.45,1.45 0 0 0 0.7,0.17 1.47,1.47 0 0 0 0.83,-0.25 0.44,0.44 0 0 0 0.18,-0.26 z"
         style="fill:#ffffff"
         id="path204" />
      <path
         d="m 203.33,310.85 a 0.52,0.52 0 0 1 -0.44,0 0.55,0.55 0 0 1 -0.29,-0.48 v -2.27 a 3,3 0 0 1 1.45,-2.55 h 0.09 a 0.28,0.28 0 0 1 0.27,0 0.27,0.27 0 0 1 0.13,0.23 0.47,0.47 0 0 0 0.94,0 1.19,1.19 0 0 0 -0.61,-1 1.17,1.17 0 0 0 -1.21,0 l -0.09,0.05 a 3.9,3.9 0 0 0 -1.91,3.35 v 2.27 a 1.49,1.49 0 0 0 0.78,1.31 1.57,1.57 0 0 0 0.7,0.17 1.47,1.47 0 0 0 0.83,-0.25 0.44,0.44 0 0 0 0.18,-0.26 z"
         style="fill:#ffffff"
         id="path206" />
      <path
         d="m 198.86,308.27 a 0.52,0.52 0 0 1 -0.44,0 0.55,0.55 0 0 1 -0.29,-0.48 v -2.29 a 3,3 0 0 1 1.45,-2.55 l 0.09,-0.05 a 0.28,0.28 0 0 1 0.27,0 0.25,0.25 0 0 1 0.13,0.23 0.47,0.47 0 1 0 0.94,0 1.22,1.22 0 0 0 -1.82,-1 l -0.09,0.06 a 3.9,3.9 0 0 0 -1.91,3.35 v 2.27 a 1.49,1.49 0 0 0 0.78,1.31 1.57,1.57 0 0 0 0.7,0.17 1.47,1.47 0 0 0 0.83,-0.25 0.44,0.44 0 0 0 0.18,-0.26 z"
         style="fill:#ffffff"
         id="path208" />
      <polygon
         points="217.69,279.52 251.34,298.95 225.48,313.88 191.82,294.45 "
         style="fill:#e6e6e6"
         id="polygon210" />
      <polygon
         points="220.92,276.28 252.83,298.46 225.81,311.18 193.89,288.99 "
         style="fill:#fafafa"
         id="polygon212" />
      <path
         d="m 192.5,258.75 h -21.95 l 2,23.23 v 0 a 4.63,4.63 0 0 0 2.62,3.4 14.07,14.07 0 0 0 12.76,0 4.66,4.66 0 0 0 2.62,-3.4 v 0 z"
         style="fill:#28110b"
         id="path214" />
      <path
         d="m 193.9,257.48 v -1.84 h -0.43 a 7.51,7.51 0 0 0 -3.19,-3.2 c -4.83,-2.79 -12.67,-2.79 -17.5,0 a 7.45,7.45 0 0 0 -3.19,3.2 h -0.44 v 1.86 c 0,1.82 1.21,3.65 3.63,5.05 4.83,2.79 12.67,2.79 17.5,0 2.42,-1.4 3.63,-3.24 3.62,-5.07 z"
         style="fill:#e0e0e0"
         id="path216" />
      <path
         d="m 190.28,260.8 c -4.83,2.79 -12.67,2.79 -17.5,0 -4.83,-2.79 -4.84,-7.31 0,-10.1 4.84,-2.79 12.67,-2.8 17.5,0 4.83,2.8 4.83,7.3 0,10.1 z"
         style="fill:#ebebeb"
         id="path218" />
      <path
         d="m 191.45,255 v -1.47 h -0.35 a 6,6 0 0 0 -2.56,-2.56 15.47,15.47 0 0 0 -14,0 5.92,5.92 0 0 0 -2.56,2.56 h -0.35 V 255 c 0,1.47 1,2.94 2.91,4.05 a 15.47,15.47 0 0 0 14,0 c 1.94,-1.13 2.91,-2.6 2.91,-4.05 z"
         style="fill:#e0e0e0"
         id="path220" />
      <path
         d="m 188.54,257.64 a 15.47,15.47 0 0 1 -14,0 c -3.88,-2.23 -3.88,-5.86 0,-8.09 a 15.47,15.47 0 0 1 14,0 c 3.87,2.23 3.87,5.86 0,8.09 z"
         style="fill:#f5f5f5"
         id="path222" />
      <path
         d="m 186.92,256.46 a 11.93,11.93 0 0 1 -10.79,0 c -2.89,-1.66 -3,-4.32 -0.3,-6 a 2.49,2.49 0 0 1 0.3,-0.19 9,9 0 0 1 2.08,-0.86 12,12 0 0 1 8.71,0.86 c 2.99,1.73 2.99,4.47 0,6.19 z"
         style="fill:#f0f0f0"
         id="path224" />
      <path
         d="m 176.13,251.12 a 11.89,11.89 0 0 1 10.8,0 4,4 0 0 1 2.19,2.67 c 0.23,-1.27 -0.51,-2.59 -2.19,-3.56 a 12,12 0 0 0 -10.8,0 c -1.69,1 -2.42,2.29 -2.2,3.56 a 4,4 0 0 1 2.2,-2.67 z"
         style="fill:#e0e0e0"
         id="path226" />
      <path
         d="m 180.21,251.41 -2.21,1.41 -2.16,-1.55 v -0.85 a 2.49,2.49 0 0 1 0.3,-0.19 9,9 0 0 1 2.08,-0.86 V 250 Z"
         style="fill:#e0e0e0"
         id="path228" />
    </g>
    <g
       id="freepik--Screen--inject-2">
      <path
         d="M 440.86,115 316.38,43.08 a 3.05,3.05 0 0 0 -3.62,0 l -4.31,3 2.94,3.64 v 100.35 c 0,3.68 2.24,8 5,9.54 l 123.25,71.16 0.23,3.91 4.54,-3.11 a 4.7,4.7 0 0 0 1.46,-3.86 V 124.49 c -0.01,-3.68 -2.25,-7.95 -5.01,-9.49 z"
         style="fill:#28110b"
         id="path231" />
      <path
         d="M 440.86,115 316.38,43.08 a 3.05,3.05 0 0 0 -3.62,0 l -4.31,3 2.94,3.64 v 100.35 c 0,3.68 2.24,8 5,9.54 l 123.25,71.16 0.23,3.91 4.54,-3.11 a 4.7,4.7 0 0 0 1.46,-3.86 V 124.49 c -0.01,-3.68 -2.25,-7.95 -5.01,-9.49 z"
         style="opacity:0.3"
         id="path233" />
      <path
         d="M 436.62,234.4 312.14,162.53 c -2.75,-1.59 -5,-5.86 -5,-9.54 V 49.77 c 0,-3.67 2.24,-5.36 5,-3.77 l 124.48,71.87 c 2.76,1.59 5,5.86 5,9.54 v 103.21 c 0,3.68 -2.24,5.38 -5,3.78 z"
         style="fill:#28110b"
         id="path235" />
      <path
         d="M 436.62,234.4 312.14,162.53 c -2.75,-1.59 -5,-5.86 -5,-9.54 V 49.77 c 0,-3.67 2.24,-5.36 5,-3.77 l 124.48,71.87 c 2.76,1.59 5,5.86 5,9.54 v 103.21 c 0,3.68 -2.24,5.38 -5,3.78 z"
         style="fill:#28110b"
         id="path237" />
      <path
         d="M 436.62,117.87 312.14,46 c -2.75,-1.59 -5,0.1 -5,3.77 v 5 l 134.47,77.63 v -5 c 0.01,-3.67 -2.23,-7.94 -4.99,-9.53 z"
         style="fill:#455a64"
         id="path239" />
      <path
         d="m 310.16,46.4 v 0 a 3.08,3.08 0 0 1 1.48,0.46 l 124.48,71.87 c 2.44,1.41 4.5,5.38 4.5,8.68 v 103.21 c 0,2 -0.79,3.38 -2,3.38 a 3.06,3.06 0 0 1 -1.49,-0.47 L 312.64,161.66 c -2.43,-1.4 -4.49,-5.38 -4.49,-8.67 V 49.77 c 0,-2.05 0.79,-3.37 2,-3.37 m 0,-1 c -1.77,0 -3,1.63 -3,4.37 V 153 c 0,3.68 2.24,7.95 5,9.54 l 124.47,71.86 a 4,4 0 0 0 2,0.6 c 1.77,0 3,-1.64 3,-4.38 V 127.41 c 0,-3.68 -2.24,-8 -5,-9.54 L 312.14,46 a 3.94,3.94 0 0 0 -2,-0.6 z"
         style="fill:#28110b"
         id="path241" />
      <path
         d="m 364.86,100 a 1,1 0 0 1 -0.53,-0.14 L 316.94,72.54 A 1.06,1.06 0 0 1 318,70.71 l 47.39,27.36 a 1.06,1.06 0 0 1 -0.53,2 z"
         style="fill:#ffffff"
         id="path243" />
      <path
         d="M 431.53,138.54 A 1,1 0 0 1 431,138.39 l -35.1,-20.26 a 1.0617438,1.0617438 0 1 1 1.06,-1.84 l 35.1,20.27 a 1.06,1.06 0 0 1 -0.53,2 z"
         style="fill:#ffffff"
         id="path245" />
      <path
         d="m 388.82,113.88 a 1.13,1.13 0 0 1 -0.53,-0.14 L 374,105.5 a 1.06,1.06 0 1 1 1.06,-1.83 l 14.26,8.23 a 1.06,1.06 0 0 1 -0.53,2 z"
         style="fill:#ffffff"
         id="path247" />
      <path
         d="m 364.86,166.41 a 1.1,1.1 0 0 1 -0.53,-0.14 l -47.39,-27.36 a 1.06,1.06 0 0 1 1.06,-1.83 l 47.39,27.35 a 1.06,1.06 0 0 1 0.38,1.45 1,1 0 0 1 -0.91,0.53 z"
         style="fill:#ffffff"
         id="path249" />
      <path
         d="M 431.53,204.9 A 1,1 0 0 1 431,204.76 L 395.9,184.5 a 1.0617438,1.0617438 0 0 1 1.06,-1.84 l 35.1,20.27 a 1.06,1.06 0 0 1 0.39,1.44 1.07,1.07 0 0 1 -0.92,0.53 z"
         style="fill:#ffffff"
         id="path251" />
      <path
         d="m 388.82,180.24 a 1,1 0 0 1 -0.53,-0.14 L 374,171.87 a 1.06,1.06 0 1 1 1.06,-1.83 l 14.26,8.23 a 1.06,1.06 0 0 1 0.39,1.44 1.07,1.07 0 0 1 -0.89,0.53 z"
         style="fill:#ffffff"
         id="path253" />
      <path
         d="m 364.86,182 a 1,1 0 0 1 -0.53,-0.14 L 316.94,154.51 A 1.0617438,1.0617438 0 0 1 318,152.67 L 365.39,180 a 1.06,1.06 0 0 1 -0.53,2 z"
         style="fill:#ffffff"
         id="path255" />
      <path
         d="m 416.59,211.88 a 1,1 0 0 1 -0.53,-0.14 L 395.9,200.1 a 1.06,1.06 0 1 1 1.06,-1.83 l 20.16,11.64 a 1.05,1.05 0 0 1 0.39,1.44 1.07,1.07 0 0 1 -0.92,0.53 z"
         style="fill:#ffffff"
         id="path257" />
      <path
         d="m 388.82,195.85 a 1.13,1.13 0 0 1 -0.53,-0.14 L 374,187.48 a 1.0617438,1.0617438 0 0 1 1.06,-1.84 l 14.26,8.23 a 1.06,1.06 0 0 1 -0.53,2 z"
         style="fill:#ffffff"
         id="path259" />
      <path
         d="M 341.23,94.65 A 1,1 0 0 1 340.7,94.5 L 316.94,80.79 A 1.06,1.06 0 0 1 318,79 l 23.76,13.71 a 1.06,1.06 0 0 1 0.38,1.45 1,1 0 0 1 -0.91,0.49 z"
         style="fill:#ffffff"
         id="path261" />
      <path
         d="m 409.66,134.16 a 1.13,1.13 0 0 1 -0.53,-0.14 L 374,113.75 a 1.06,1.06 0 1 1 1.06,-1.83 l 35.1,20.26 a 1.06,1.06 0 0 1 -0.53,2 z"
         style="fill:#ffffff"
         id="path263" />
      <path
         d="m 365.19,108.48 a 1,1 0 0 1 -0.53,-0.14 l -14.26,-8.23 a 1.0617438,1.0617438 0 0 1 1.06,-1.84 l 14.26,8.23 a 1.06,1.06 0 0 1 0.38,1.45 1,1 0 0 1 -0.91,0.53 z"
         style="fill:#ffffff"
         id="path265" />
      <path
         d="m 364.86,116.54 a 1,1 0 0 1 -0.53,-0.15 L 316.94,89 A 1.06,1.06 0 0 1 318,87.2 l 47.39,27.36 a 1.06,1.06 0 0 1 0.38,1.45 1,1 0 0 1 -0.91,0.53 z"
         style="fill:#ffffff"
         id="path267" />
      <path
         d="m 405.78,140.16 a 1,1 0 0 1 -0.53,-0.14 l -9.35,-5.4 a 1.06,1.06 0 1 1 1.06,-1.83 l 9.35,5.4 a 1.06,1.06 0 0 1 0.39,1.44 1.07,1.07 0 0 1 -0.92,0.53 z"
         style="fill:#ffffff"
         id="path269" />
      <path
         d="m 345.9,113.84 a 1.13,1.13 0 0 1 -0.53,-0.14 L 336,108.3 a 1.0617438,1.0617438 0 0 1 1.06,-1.84 l 9.35,5.4 a 1.06,1.06 0 0 1 -0.53,2 z"
         style="fill:#ffffff"
         id="path271" />
      <path
         d="m 388.82,130.37 a 1.13,1.13 0 0 1 -0.53,-0.14 L 374,122 a 1.0617438,1.0617438 0 0 1 1.06,-1.84 l 14.26,8.23 a 1.06,1.06 0 0 1 -0.53,2 z"
         style="fill:#ffffff"
         id="path273" />
      <path
         d="m 332.66,106.19 a 1,1 0 0 1 -0.53,-0.14 L 316.94,97.28 A 1.06,1.06 0 0 1 318,95.45 l 15.19,8.77 a 1.05,1.05 0 0 1 -0.53,2 z"
         style="fill:#ffffff"
         id="path275" />
      <path
         d="m 365.19,125 a 1,1 0 0 1 -0.53,-0.14 L 350.4,116.6 a 1.06,1.06 0 1 1 1.06,-1.83 l 14.26,8.23 a 1.06,1.06 0 0 1 -0.53,2 z"
         style="fill:#ffffff"
         id="path277" />
      <path
         d="m 364.86,133.63 a 1,1 0 0 1 -0.53,-0.14 L 316.94,106.13 A 1.06,1.06 0 0 1 318,104.3 l 47.39,27.35 a 1.06,1.06 0 0 1 0.38,1.45 1,1 0 0 1 -0.91,0.53 z"
         style="fill:#ffffff"
         id="path279" />
      <path
         d="M 431.53,172.12 A 1,1 0 0 1 431,172 l -35.1,-20.26 a 1.0617438,1.0617438 0 0 1 1.06,-1.84 l 35.1,20.27 a 1.06,1.06 0 0 1 0.39,1.44 1.07,1.07 0 0 1 -0.92,0.51 z"
         style="fill:#ffffff"
         id="path281" />
      <path
         d="m 388.82,147.46 a 1,1 0 0 1 -0.53,-0.14 L 374,139.09 a 1.06,1.06 0 1 1 1.06,-1.83 l 14.26,8.23 a 1.07,1.07 0 0 1 0.39,1.45 1.09,1.09 0 0 1 -0.89,0.52 z"
         style="fill:#ffffff"
         id="path283" />
      <path
         d="m 341.23,128.23 a 1,1 0 0 1 -0.53,-0.14 l -23.76,-13.71 a 1.0617438,1.0617438 0 0 1 1.06,-1.84 l 23.76,13.72 a 1.06,1.06 0 0 1 -0.53,2 z"
         style="fill:#ffffff"
         id="path285" />
      <path
         d="m 409.66,167.75 a 1,1 0 0 1 -0.53,-0.15 L 374,147.34 a 1.0617438,1.0617438 0 0 1 1.06,-1.84 l 35.1,20.27 a 1.06,1.06 0 0 1 -0.53,2 z"
         style="fill:#ffffff"
         id="path287" />
      <path
         d="m 365.19,142.07 a 1.13,1.13 0 0 1 -0.53,-0.14 l -14.26,-8.24 a 1.06,1.06 0 1 1 1.06,-1.83 l 14.26,8.23 a 1.06,1.06 0 0 1 0.38,1.45 1,1 0 0 1 -0.91,0.53 z"
         style="fill:#ffffff"
         id="path289" />
      <path
         d="m 364.86,150.12 a 1,1 0 0 1 -0.53,-0.14 l -47.39,-27.36 a 1.06,1.06 0 0 1 1.06,-1.83 l 47.39,27.36 a 1.06,1.06 0 0 1 -0.53,2 z"
         style="fill:#ffffff"
         id="path291" />
      <path
         d="m 405.78,173.75 a 1.13,1.13 0 0 1 -0.53,-0.14 l -9.35,-5.4 a 1.06,1.06 0 1 1 1.06,-1.83 l 9.35,5.39 a 1.06,1.06 0 0 1 -0.53,2 z"
         style="fill:#ffffff"
         id="path293" />
      <path
         d="m 345.9,147.43 a 1,1 0 0 1 -0.53,-0.15 L 336,141.89 a 1.0617438,1.0617438 0 0 1 1.06,-1.84 l 9.35,5.4 a 1.06,1.06 0 0 1 -0.53,2 z"
         style="fill:#ffffff"
         id="path295" />
      <path
         d="m 388.82,164 a 1.13,1.13 0 0 1 -0.53,-0.14 L 374,155.59 a 1.0617438,1.0617438 0 0 1 1.06,-1.84 l 14.29,8.25 a 1.06,1.06 0 0 1 -0.53,2 z"
         style="fill:#ffffff"
         id="path297" />
      <path
         d="m 332.66,139.78 a 1,1 0 0 1 -0.53,-0.14 l -15.19,-8.77 A 1.0747674,1.0747674 0 0 1 318,129 l 15.19,8.76 a 1.06,1.06 0 0 1 -0.53,2 z"
         style="fill:#ffffff"
         id="path299" />
      <path
         d="m 365.19,158.56 a 1,1 0 0 1 -0.53,-0.14 l -14.26,-8.23 a 1.0617438,1.0617438 0 0 1 1.06,-1.84 l 14.26,8.24 a 1.06,1.06 0 0 1 -0.53,2 z"
         style="fill:#ffffff"
         id="path301" />
      <path
         d="m 345.9,163.23 a 1,1 0 0 1 -0.53,-0.14 l -9.35,-5.4 a 1.06,1.06 0 1 1 1.06,-1.83 l 9.35,5.4 a 1.05,1.05 0 0 1 -0.53,2 z"
         style="fill:#ffffff"
         id="path303" />
      <path
         d="m 332.66,155.59 a 1.13,1.13 0 0 1 -0.53,-0.14 l -15.19,-8.77 a 1.0617438,1.0617438 0 0 1 1.06,-1.84 l 15.19,8.77 a 1.06,1.06 0 0 1 -0.53,2 z"
         style="fill:#ffffff"
         id="path305" />
      <path
         d="m 365.19,174.37 a 1.13,1.13 0 0 1 -0.53,-0.14 L 350.4,166 a 1.0617438,1.0617438 0 0 1 1.06,-1.84 l 14.26,8.23 a 1.06,1.06 0 0 1 0.38,1.45 1,1 0 0 1 -0.91,0.53 z"
         style="fill:#ffffff"
         id="path307" />
      <path
         d="m 326.85,82.83 v 38.34 c 0,0.62 -0.22,1 -0.57,1.17 v 0 l -1.47,0.81 v -1.31 l -0.21,-39.42 1.92,-1 a 3.25,3.25 0 0 1 0.33,1.41 z"
         style="fill:#263238"
         id="path309" />
      <path
         d="m 326.52,81.45 -1.92,1 -46.49,-27.29 -1.11,-0.64 1.53,-0.86 h 0.05 v 0 a 0.85,0.85 0 0 1 0.91,0.07 l 46,26.49 a 2.78,2.78 0 0 1 1.03,1.23 z"
         style="fill:#37474f"
         id="path311" />
      <path
         d="m 325.19,83.66 v 38.09 a 1.26,1.26 0 0 1 -0.44,1.09 h -0.09 a 0.89,0.89 0 0 1 -0.85,-0.1 l -45.7,-26.33 a 3.29,3.29 0 0 1 -1.38,-2.63 V 55.75 a 1.25,1.25 0 0 1 0.42,-1.07 0.39,0.39 0 0 1 0.14,-0.08 0.9,0.9 0 0 1 0.82,0.11 L 323.81,81 a 2.69,2.69 0 0 1 1,1.19 3.36,3.36 0 0 1 0.38,1.47 z"
         style="fill:#455a64"
         id="path313" />
      <text
         transform="matrix(-0.87,-0.5,0,1,316.95,108.35)"
         style="font-weight:700;font-size:25.7999px;font-family:Montserrat-Bold, Montserrat;fill:#fafafa"
         id="text315">/</text>
      <path
         d="m 277.38,54.64 a 0.82,0.82 0 0 1 0.42,0.13 l 46,26.49 a 2.54,2.54 0 0 1 0.92,1.09 3,3 0 0 1 0.33,1.33 V 122 a 1,1 0 0 1 -0.3,0.87 h -0.08 a 0.42,0.42 0 0 1 -0.2,0 1,1 0 0 1 -0.42,-0.13 l -46,-26.5 a 3.08,3.08 0 0 1 -1.26,-2.42 V 55.6 a 1.09,1.09 0 0 1 0.31,-0.88 h 0.09 a 0.39,0.39 0 0 1 0.18,0 m 0,-0.26 a 0.67,0.67 0 0 0 -0.28,0.06 l -0.14,0.08 a 1.28,1.28 0 0 0 -0.41,1.08 v 38.23 a 3.35,3.35 0 0 0 1.38,2.65 l 46,26.49 a 1.1,1.1 0 0 0 0.54,0.16 0.78,0.78 0 0 0 0.31,-0.06 l 0.09,-0.05 A 1.27,1.27 0 0 0 325.3,122 V 83.68 a 3.4,3.4 0 0 0 -0.36,-1.44 2.84,2.84 0 0 0 -1,-1.2 l -46,-26.49 a 1.13,1.13 0 0 0 -0.55,-0.17 z"
         style="fill:#37474f"
         id="path317" />
      <path
         d="m 319.46,55.63 c 0,1.09 -0.77,1.53 -1.71,1 a 3.75,3.75 0 0 1 -1.71,-3 c 0,-1.09 0.76,-1.53 1.71,-1 a 3.81,3.81 0 0 1 1.71,3 z"
         style="fill:#ffffff"
         id="path319" />
      <path
         d="m 325.82,59.55 c 0,1.09 -0.77,1.54 -1.72,1 a 3.78,3.78 0 0 1 -1.71,-3 c 0,-1.09 0.77,-1.54 1.71,-1 a 3.78,3.78 0 0 1 1.72,3 z"
         style="fill:#ffffff"
         id="path321" />
      <path
         d="m 332.17,63.48 c 0,1.09 -0.76,1.53 -1.71,1 a 3.81,3.81 0 0 1 -1.71,-3 c 0,-1.09 0.77,-1.53 1.71,-1 a 3.75,3.75 0 0 1 1.71,3 z"
         style="fill:#ffffff"
         id="path323" />
    </g>
  </g>
</svg>
