<?xml version="1.0" encoding="UTF-8" standalone="no"?>
<svg
   viewbox="0 0 48 48"
   version="1.1"
   id="svg6"
   sodipodi:docname="external-link-icon.svg"
   width="150"
   height="150"
   inkscape:version="1.2.1 (9c6d41e410, 2022-07-14)"
   xmlns:inkscape="http://www.inkscape.org/namespaces/inkscape"
   xmlns:sodipodi="http://sodipodi.sourceforge.net/DTD/sodipodi-0.dtd"
   xmlns="http://www.w3.org/2000/svg"
   xmlns:svg="http://www.w3.org/2000/svg">
  <defs
     id="defs10" />
  <sodipodi:namedview
     id="namedview8"
     pagecolor="#ffffff"
     bordercolor="#000000"
     borderopacity="0.25"
     inkscape:showpageshadow="2"
     inkscape:pageopacity="0.0"
     inkscape:pagecheckerboard="0"
     inkscape:deskcolor="#d1d1d1"
     showgrid="false"
     inkscape:zoom="3.6"
     inkscape:cx="62.361111"
     inkscape:cy="74.722222"
     inkscape:window-width="1366"
     inkscape:window-height="742"
     inkscape:window-x="0"
     inkscape:window-y="0"
     inkscape:window-maximized="1"
     inkscape:current-layer="svg6" />
  <g
     id="g295"
     transform="matrix(3.725,0,0,3.725,-14.4,-14.4)"
     style="fill:#1a1a1a">
    <path
       d="m 36,24 c -1.2,0 -2,0.8 -2,2 v 12 c 0,1.2 -0.8,2 -2,2 H 10 C 8.8,40 8,39.2 8,38 V 16 c 0,-1.2 0.8,-2 2,-2 h 12 c 1.2,0 2,-0.8 2,-2 0,-1.2 -0.8,-2 -2,-2 H 10 c -3.4,0 -6,2.6 -6,6 v 22 c 0,3.4 2.6,6 6,6 h 22 c 3.4,0 6,-2.6 6,-6 V 26 c 0,-1.2 -0.8,-2 -2,-2 z"
       id="path2"
       style="fill:#1a1a1a" />
    <path
       d="M 43.8,5.2 C 43.6,4.8 43.2,4.4 42.8,4.2 42.6,4 42.2,4 42,4 H 30 c -1.2,0 -2,0.8 -2,2 0,1.2 0.8,2 2,2 h 7.2 L 18.6,26.6 c -0.8,0.8 -0.8,2 0,2.8 0.4,0.4 0.8,0.6 1.4,0.6 0.6,0 1,-0.2 1.4,-0.6 L 40,10.8 V 18 c 0,1.2 0.8,2 2,2 1.2,0 2,-0.8 2,-2 V 6 C 44,5.8 44,5.4 43.8,5.2 Z"
       id="path4"
       style="fill:#1a1a1a" />
  </g>
</svg>
