<?xml version="1.0" encoding="UTF-8" standalone="no"?>
<svg
   width="150"
   height="50"
   version="1.1"
   id="svg52"
   sodipodi:docname="firebase-logo.svg"
   inkscape:version="1.2.1 (9c6d41e410, 2022-07-14)"
   xmlns:inkscape="http://www.inkscape.org/namespaces/inkscape"
   xmlns:sodipodi="http://sodipodi.sourceforge.net/DTD/sodipodi-0.dtd"
   xmlns:xlink="http://www.w3.org/1999/xlink"
   xmlns="http://www.w3.org/2000/svg"
   xmlns:svg="http://www.w3.org/2000/svg">
  <sodipodi:namedview
     id="namedview54"
     pagecolor="#ffffff"
     bordercolor="#000000"
     borderopacity="0.25"
     inkscape:showpageshadow="2"
     inkscape:pageopacity="0.0"
     inkscape:pagecheckerboard="0"
     inkscape:deskcolor="#d1d1d1"
     showgrid="false"
     inkscape:zoom="4.5"
     inkscape:cx="74.111111"
     inkscape:cy="23.333333"
     inkscape:window-width="1366"
     inkscape:window-height="742"
     inkscape:window-x="0"
     inkscape:window-y="0"
     inkscape:window-maximized="1"
     inkscape:current-layer="svg52" />
  <filter
     height="1.2619826"
     width="1.2793647"
     y="-0.17668593"
     x="-0.13183502"
     id="A">
    <feGaussianBlur
       in="SourceAlpha"
       stdDeviation="3.5"
       id="feGaussianBlur2" />
    <feOffset
       dy="-9"
       dx="1"
       id="feOffset4" />
    <feComposite
       k3="1"
       operator="arithmetic"
       in2="SourceAlpha"
       k2="-1"
       k1="0"
       k4="0"
       id="feComposite6" />
    <feColorMatrix
       values="0 0 0 0 0 0 0 0 0 0 0 0 0 0 0 0 0 0 0.09 0"
       id="feColorMatrix8" />
  </filter>
  <filter
     height="1.3006127"
     width="1.8321198"
     y="-0.15030637"
     x="-0.41605991"
     id="B">
    <feGaussianBlur
       in="SourceAlpha"
       stdDeviation="17.5"
       id="feGaussianBlur11" />
    <feOffset
       id="feOffset13" />
    <feComposite
       k3="1"
       operator="arithmetic"
       in2="SourceAlpha"
       k2="-1"
       k1="0"
       k4="0"
       id="feComposite15" />
    <feColorMatrix
       values="0 0 0 0 0 0 0 0 0 0 0 0 0 0 0 0 0 0 0.06 0"
       id="feColorMatrix17" />
  </filter>
  <g
     filter="url(#B)"
     id="g26"
     transform="matrix(0.1340415,0,0,0.1340415,5.4617904,6.7297769)">
    <use
       xlink:href="#D"
       id="use24" />
  </g>
  <g
     id="g419"
     transform="matrix(1.0308693,0,0,1.0308693,-5.1303935,-3.3489058)">
    <g
       id="g405"
       transform="translate(0,-2.7276794)">
      <path
         d="M 5.4617904,44.663253 5.7463605,44.264748 19.204663,18.7281 19.23308,18.457738 13.300537,7.3139298 C 12.803243,6.3804648 11.40385,6.6163778 11.240856,7.6613653 Z"
         fill="#ffc24a"
         id="path20"
         style="stroke-width:0.134042" />
      <use
         xlink:href="#D"
         fill="#ffa712"
         id="use22"
         transform="matrix(0.1340415,0,0,0.1340415,5.4617904,6.7297769)" />
      <path
         d="m 23.558063,26.886938 4.417338,-4.523901 -4.418544,-8.435232 c -0.41955,-0.798485 -1.590671,-0.800763 -2.005663,0 L 19.190321,18.4316 v 0.383359 z"
         fill="#f4bd62"
         id="path28"
         style="stroke-width:0.134042" />
      <use
         xlink:href="#C"
         fill="#ffa50e"
         id="use30"
         transform="matrix(0.1340415,0,0,0.1340415,5.4617904,6.7297769)" />
      <g
         filter="url(#A)"
         id="g34"
         transform="matrix(0.1340415,0,0,0.1340415,5.4617904,6.7297769)">
        <use
           xlink:href="#C"
           id="use32" />
      </g>
      <path
         d="M 19.202787,18.405462 5.4617904,44.663253 5.5907383,44.533501 6.0593474,44.343162 23.280731,27.18585 23.498683,26.592046 Z"
         fill="#f6820c"
         id="path36"
         style="stroke-width:0.134042" />
      <path
         d="M 24.109644,53.3159 39.695319,44.623577 35.245812,17.211822 C 35.106409,16.354225 34.054451,16.0151 33.440675,16.630082 L 5.4617904,44.663253 20.95806,53.315364 a 3.2344214,3.2344214 0 0 0 3.151718,6.7e-4"
         fill="#fde068"
         id="path38"
         style="stroke-width:0.134042" />
      <path
         d="M 39.555782,44.550927 35.138847,17.348276 c -0.138063,-0.851163 -1.013354,-1.20329 -1.622439,-0.592999 L 5.6360443,44.609905 20.962081,53.175157 c 0.971801,0.5426 2.155388,0.542868 3.127725,8.04e-4 z"
         fill="#fcca3f"
         id="path40"
         style="stroke-width:0.134042" />
      <path
         d="m 24.109644,53.059881 c -0.978503,0.546353 -2.172411,0.546085 -3.151718,-8.04e-4 L 5.586449,44.531491 5.4617904,44.663253 20.95806,53.315364 c 0.979307,0.546889 2.172009,0.546889 3.151718,6.7e-4 l 15.585675,-8.692323 -0.0382,-0.234841 z"
         fill="#eeab37"
         id="path42"
         style="stroke-width:0.134042" />
    </g>
    <path
       d="M 51.49615,37.706713 H 48.843643 V 17.063226 h 12.036585 v 2.536599 H 51.49615 v 6.776152 h 8.47762 v 2.481617 H 51.49615 Z M 65.543291,20.032251 c -0.365556,0.365555 -0.806897,0.549819 -1.325511,0.549819 a 1.7980578,1.7980578 0 0 1 -1.32551,-0.549819 1.8129178,1.8129178 0 0 1 -0.549819,-1.325511 1.7980578,1.7980578 0 0 1 0.549819,-1.32551 1.8129178,1.8129178 0 0 1 1.32551,-0.54982 1.7980578,1.7980578 0 0 1 1.325511,0.54982 1.8129178,1.8129178 0 0 1 0.549819,1.32551 1.7980578,1.7980578 0 0 1 -0.549819,1.325511 z m 0,17.674462 H 62.890784 V 23.579328 h 2.652507 z m 5.725551,0 H 68.614849 V 23.579328 h 2.536599 v 2.306269 h 0.114422 c 0.26748,-0.768261 0.821757,-1.402782 1.658374,-1.902077 0.836617,-0.499296 1.634598,-0.750429 2.437037,-0.750429 0.802439,0 1.45182,0.115908 1.991237,0.346237 l -1.010478,2.481617 c -0.346238,-0.1486 -0.817299,-0.202095 -1.411699,-0.202095 -0.96144,0 -1.812917,0.378929 -2.551459,1.138274 -0.738541,0.759345 -1.11004,1.753478 -1.11004,2.983885 v 7.72719 z m 13.058952,0.4458 c -2.133893,0 -3.868053,-0.710308 -5.203966,-2.133894 -1.335912,-1.423586 -2.006097,-3.218672 -2.006097,-5.391201 0,-2.056622 0.647895,-3.82496 1.931797,-5.305014 1.283903,-1.480054 2.971997,-2.220081 4.973636,-2.220081 2.080398,0 3.771464,0.683559 5.03159,2.047705 1.260127,1.364147 1.887218,3.190439 1.887218,5.478876 l -0.02972,0.490379 H 79.767266 c 0.07727,1.4221 0.552791,2.547001 1.426558,3.373216 a 4.3242548,4.3242548 0 0 0 3.071558,1.239323 c 1.902078,0 3.190438,-0.806897 3.863595,-2.422178 l 2.377598,0.980759 c -0.4458,1.095181 -1.221491,2.013528 -2.278036,2.753555 -1.056544,0.740027 -2.355307,1.110041 -3.893315,1.110041 z m 3.804155,-9.213189 c -0.05944,-0.806897 -0.427967,-1.575158 -1.11004,-2.306269 -0.682073,-0.731112 -1.69701,-1.095181 -3.041839,-1.095181 -0.980758,0 -1.830749,0.307602 -2.551458,0.921319 -0.72071,0.613717 -1.215547,1.441418 -1.485999,2.481617 h 8.17299 z m 12.427401,9.213189 c -1.077346,0 -2.043245,-0.23033 -2.897694,-0.692476 -0.854449,-0.462145 -1.494914,-1.037226 -1.931798,-1.729701 h -0.09956 v 1.961517 H 93.093697 V 17.063226 h 2.652507 v 6.516102 l -0.115908,1.961518 h 0.115908 c 0.42351,-0.692475 1.062489,-1.269043 1.931798,-1.729702 0.869309,-0.460659 1.821834,-0.692475 2.897698,-0.692475 1.82778,0 3.41779,0.720709 4.72844,2.162127 1.31066,1.441418 1.99124,3.229074 1.99124,5.349594 0,2.120519 -0.66275,3.923035 -1.99124,5.349593 -1.32848,1.426559 -2.90215,2.162128 -4.72844,2.162128 z m -0.4458,-2.422177 c 1.23041,0 2.28844,-0.466604 3.17112,-1.396839 0.88269,-0.930235 1.32551,-2.166585 1.32551,-3.704593 0,-1.538008 -0.44282,-2.772873 -1.32551,-3.704594 -0.88268,-0.931721 -1.9422,-1.396838 -3.17112,-1.396838 a 4.1756549,4.1756549 0 0 0 -3.185977,1.381978 c -0.873767,0.936179 -1.312137,2.162128 -1.312137,3.719454 0,1.557326 0.436884,2.796648 1.312137,3.719453 0.875253,0.922805 1.936255,1.384951 3.185977,1.384951 z m 14.1363,2.422177 c -1.48599,0 -2.75355,-0.4458 -3.76254,-1.297277 -1.009,-0.851477 -1.51572,-2.009069 -1.51572,-3.417796 0,-1.538008 0.5944,-2.743152 1.78765,-3.618405 1.19326,-0.875253 2.66291,-1.312137 4.41342,-1.312137 1.55732,0 2.83528,0.288284 3.83387,0.864851 v -0.404191 c 0,-1.040199 -0.35664,-1.869386 -1.06694,-2.493505 -0.71031,-0.624119 -1.58556,-0.936179 -2.62428,-0.936179 -0.76974,0 -1.46668,0.182778 -2.09079,0.549819 a 2.8233966,2.8233966 0 0 0 -1.28242,1.499372 l -2.42218,-1.037226 c 0.32692,-0.847019 0.97036,-1.628654 1.9318,-2.347877 0.96144,-0.719224 2.229,-1.081807 3.80415,-1.081807 1.80698,0 3.30635,0.529015 4.49812,1.58556 1.19177,1.056545 1.78766,2.547001 1.78766,4.468397 v 8.534087 h -2.52174 V 35.746682 H 118.904 c -1.05803,1.613794 -2.60495,2.422177 -4.64226,2.422177 z m 0.4458,-2.422177 c 1.09518,0 2.0908,-0.40865 2.98389,-1.225949 0.89308,-0.817299 1.34037,-1.783198 1.34037,-2.897696 -0.74895,-0.615204 -1.87236,-0.921319 -3.37322,-0.921319 -1.28836,0 -2.25872,0.279367 -2.91255,0.836617 -0.65384,0.557249 -0.98076,1.211088 -0.98076,1.961517 0,0.692475 0.2972,1.239323 0.89457,1.643514 0.59737,0.404192 1.27796,0.606288 2.0477,0.606288 z m 14.56279,2.422177 c -1.57516,0 -2.87838,-0.38636 -3.90818,-1.153135 a 6.8207317,6.8207317 0 0 1 -2.26317,-2.882836 l 2.37759,-0.980759 c 0.74895,1.783198 2.02839,2.652506 3.83388,2.652506 0.82621,0 1.50383,-0.182777 2.03284,-0.549819 0.52902,-0.367041 0.79353,-0.847019 0.79353,-1.441418 0,-0.921319 -0.64344,-1.545438 -1.9318,-1.872358 l -2.85312,-0.692475 c -0.90348,-0.23033 -1.75942,-0.668699 -2.56632,-1.312136 -0.80689,-0.643438 -1.20663,-1.481541 -1.20663,-2.593067 0,-1.248239 0.55279,-2.263176 1.65838,-3.041839 1.10558,-0.778663 2.41772,-1.167994 3.93789,-1.167994 1.24824,0 2.3776,0.297199 3.3435,0.849991 0.9659,0.552791 1.68215,1.379006 2.10566,2.437037 l -2.30627,0.951039 c -0.5201,-1.248239 -1.59596,-1.872358 -3.22908,-1.872358 -0.78758,0 -1.45182,0.1486 -1.99123,0.490379 -0.53942,0.34178 -0.8069,0.768261 -0.8069,1.325511 0,0.806897 0.62412,1.35523 1.87236,1.643514 l 2.79665,0.662755 c 1.32551,0.307602 2.30626,0.836617 2.94227,1.58556 0.63601,0.748943 0.95104,1.595962 0.95104,2.536599 0,1.269042 -0.5201,2.325587 -1.55733,3.17112 -1.03722,0.845533 -2.37462,1.269043 -4.00773,1.269043 z m 14.12738,0 c -2.13389,0 -3.86954,-0.710308 -5.20397,-2.133894 -1.33442,-1.423586 -2.00609,-3.218672 -2.00609,-5.391201 0,-2.056622 0.64789,-3.82496 1.93179,-5.305014 1.28391,-1.480054 2.972,-2.220081 4.97364,-2.220081 2.0804,0 3.77146,0.683559 5.03159,2.047705 C 149.37291,26.514175 150,28.340467 150,30.628904 v 0.490379 h -11.14499 c 0.0743,1.4221 0.55279,2.547001 1.42656,3.373216 a 4.3242548,4.3242548 0 0 0 3.07007,1.239323 c 1.90208,0 3.19044,-0.806897 3.8636,-2.422178 l 2.37759,0.980759 c -0.44579,1.095181 -1.22149,2.013528 -2.27803,2.753555 -1.05655,0.740027 -2.35531,1.110041 -3.89332,1.110041 z m 3.80416,-9.213189 c -0.0594,-0.806897 -0.42797,-1.575158 -1.11004,-2.306269 -0.68208,-0.731112 -1.69701,-1.095181 -3.04184,-1.095181 a 3.8041554,3.8041554 0 0 0 -2.55146,0.922805 c -0.72071,0.615203 -1.21555,1.441418 -1.486,2.481617 h 8.17299 z"
       fill="#63666a"
       id="path46"
       style="stroke-width:1.486" />
  </g>
  <defs
     id="defs50">
    <path
       id="C"
       d="m 134.417,148.974 32.038,-32.812 -32.038,-61.007 c -3.042,-5.8 -10.433,-6.398 -13.443,-0.6 l -17.705,34.1 -0.53,1.744 z" />
    <path
       id="D"
       d="M 1.253,280.73 2.858,277.6 102.2,89.083 58.062,5.608 c -3.67,-6.892 -12.987,-5.135 -14.2,2.58 z" />
  </defs>
</svg>
